<svg width="260" height="260" viewBox="0 0 260 260" fill="none" xmlns="http://www.w3.org/2000/svg">
<mask id="mask0_2324_4853" style="mask-type:alpha" maskUnits="userSpaceOnUse" x="0" y="0" width="260" height="260">
<rect width="260" height="260" rx="10" fill="#ABB0BA"/>
</mask>
<g mask="url(#mask0_2324_4853)">
<rect width="260" height="260" fill="url(#paint0_linear_2324_4853)"/>
<path d="M159.762 32.5035C194.745 32.2211 226.254 48.8426 246.771 73.0065L257.652 73.1523C262.479 73.2162 266.736 75.653 269.355 79.3356C269.648 79.6053 269.937 79.8789 270.219 80.1581C272.04 81.9623 273.692 84.0211 274.907 86.1296C276.021 88.0628 276.894 90.2545 276.996 92.449L276.643 205.587C277.145 205.602 277.634 205.621 278.109 205.647C280.742 205.792 283.135 206.119 284.958 206.734C285.861 207.039 286.833 207.483 287.629 208.175C288.427 208.869 289.141 209.912 289.235 211.272L289.246 211.551L289.227 212.165C289.02 215.203 287.184 217.72 285.344 219.811C284.318 220.976 283.128 222.183 281.926 223.402C280.703 224.642 279.434 225.93 278.153 227.345C276.429 229.252 274.684 231.383 273.094 233.853C274.245 241.173 274.985 247.56 275.717 251.958L276.014 253.827C277.405 263.057 277.401 270.595 275.127 276.911C272.8 283.372 268.252 288.161 261.417 292.169L260.019 292.961C249.043 298.97 230.995 303.375 210.359 305.983C189.623 308.603 165.92 309.451 143.406 308.145C120.93 306.841 99.4427 303.382 83.2313 297.283C67.5256 291.375 55.5622 282.497 54.0932 269.587L54.0311 268.968C53.2988 260.547 53.5595 252.131 54.6523 243.933L54.8717 242.36C57.6061 223.736 64.6521 206.135 74.2641 192.203C59.7457 178.392 51.0949 160.366 50.3153 139.536L50.2803 138.375C50.123 131.607 50.7932 124.844 52.21 118.194C51.5553 114.937 51.4458 111.313 52.0062 107.565C53.3336 98.6908 58.0257 91.5873 63.6486 88.8985C81.9739 57.3415 117.311 33.3944 158.335 32.5249L159.762 32.5035Z" fill="url(#paint1_linear_2324_4853)" stroke="url(#paint2_linear_2324_4853)" stroke-width="16.25" stroke-linecap="round"/>
<path d="M101.691 170.372C80.2363 181.862 62.0268 211.378 57.6334 244.328C56.5676 252.322 56.3151 260.518 57.0273 268.709C60.9775 314.16 216.752 313.259 258.614 290.339C273.013 282.456 276.11 272.34 272.801 252.449C269.612 233.28 266.856 182.019 232.868 169.692" fill="#FFD527"/>
<path d="M101.691 170.372C80.2363 181.862 62.0268 211.378 57.6334 244.328C56.5676 252.322 56.3151 260.518 57.0273 268.709C60.9775 314.16 216.752 313.259 258.614 290.339C273.013 282.456 276.11 272.34 272.801 252.449C269.612 233.28 266.856 182.019 232.868 169.692" stroke="#F99015" stroke-width="4.875" stroke-linecap="round" stroke-linejoin="round"/>
<path d="M83.861 196.4C65.0445 182.249 53.842 162.15 53.2873 138.305C52.1098 87.6512 99.0683 36.7673 158.426 35.5101C217.783 34.2528 267.061 83.0967 268.239 133.751C268.794 157.66 258.48 178.123 240.568 192.939" fill="#FFD527"/>
<path d="M83.861 196.4C65.0445 182.249 53.842 162.15 53.2873 138.305C52.1098 87.6512 99.0683 36.7673 158.426 35.5101C217.783 34.2528 267.061 83.0967 268.239 133.751C268.794 157.66 258.48 178.123 240.568 192.939" stroke="#F99015" stroke-width="4.875" stroke-linecap="round" stroke-linejoin="round"/>
<path d="M127.606 55.2944C110.066 60.3434 95.1951 73.5548 86.3594 85.6392" stroke="white" stroke-width="4.875" stroke-linecap="round" stroke-linejoin="round"/>
<path d="M82.9351 133.155C101.303 125.385 100.996 105.856 107.606 103.39C115.007 100.629 128.584 116.62 144.52 112.316C153.96 109.766 159.23 112.897 159.97 117.551C160.197 118.985 159.995 120.563 159.353 122.163C158.18 125.086 155.539 128.086 151.366 130.423C114.152 151.265 97.1199 150.643 91.2295 146.263C89.6199 145.067 88.8429 143.59 88.7122 142.194C78.7074 145.973 73.4237 137.178 82.9351 133.155Z" fill="#FF5D1F"/>
<path d="M82.9351 133.155C101.303 125.385 100.996 105.856 107.606 103.39C115.007 100.629 128.584 116.62 144.52 112.316C153.96 109.766 159.23 112.897 159.97 117.551C160.197 118.985 159.995 120.563 159.353 122.163C158.18 125.086 155.539 128.086 151.366 130.423C114.152 151.265 97.1199 150.643 91.2295 146.263C89.6199 145.067 88.8429 143.59 88.7122 142.194C78.7074 145.973 73.4237 137.178 82.9351 133.155Z" stroke="#CF3502" stroke-width="4.875" stroke-miterlimit="10"/>
<path d="M123.344 119.974C118.783 118.266 114.037 115.158 111.766 112.99" stroke="#FFAE7A" stroke-width="4.875" stroke-linecap="round" stroke-linejoin="round"/>
<path d="M142.816 123.366C118.841 138.077 98.6565 140.405 86.2256 141.879" stroke="#7C0808" stroke-width="4.875" stroke-linecap="round" stroke-linejoin="round"/>
<path d="M175.519 76.2035C179.08 87.9356 173.956 99.924 164.073 102.981C154.189 106.038 143.291 99.0053 139.73 87.2733C136.168 75.5412 141.293 63.5528 151.176 60.4959C161.059 57.439 171.958 64.4714 175.519 76.2035Z" fill="#26282D"/>
<path d="M155.502 75.1132C158.075 77.5631 161.751 77.6858 163.713 75.3871C165.675 73.0885 165.18 69.2386 162.607 66.7888C160.034 64.3389 156.358 64.2162 154.396 66.5148C152.433 68.8135 152.929 72.6634 155.502 75.1132Z" fill="white"/>
<path d="M81.6404 112.078C79.8256 124.211 71.7262 133.036 63.5494 131.79C55.3726 130.544 50.2156 119.698 52.0304 107.565C53.8452 95.4321 61.9446 86.6069 70.1214 87.8531C78.2982 89.0993 83.4552 99.9449 81.6404 112.078Z" fill="#26282D"/>
<path d="M67.787 102.922C68.7114 106.202 71.2855 107.812 73.5365 106.519C75.7876 105.227 76.8626 101.52 75.9382 98.2403C75.0138 94.9611 72.4397 93.3506 70.1886 94.6433C67.9376 95.9361 66.8626 99.6432 67.787 102.922Z" fill="white"/>
<path d="M263.87 252.443C266.196 226.205 286.338 220.032 286.291 211.566C286.252 204.762 234.736 209.867 218.91 222.596" fill="#FFD527"/>
<path d="M263.87 252.443C266.196 226.205 286.338 220.032 286.291 211.566C286.252 204.762 234.736 209.867 218.91 222.596" stroke="#F99015" stroke-width="4.875" stroke-linecap="round" stroke-linejoin="round"/>
<path d="M273.668 211.783L274.05 92.8847C274.057 86.4806 263.773 76.5022 257.643 76.4212L214.579 75.7748C211.946 75.74 209.526 76.6662 207.621 78.2417C206.478 79.1868 200.735 83.9012 199.396 85.796C198.056 87.6908 197.263 90.0367 197.26 92.5879L197.267 212.134C201.099 220.233 208.434 223.964 214.564 224.045L261.868 224.577C263.86 224.603 265.167 224.222 266.765 223.25C267.849 222.584 269.697 220.833 270.983 219.29C272.653 217.286 273.664 214.665 273.668 211.783Z" fill="#26282D" stroke="#26282D" stroke-width="4.875" stroke-linecap="round" stroke-linejoin="round"/>
<path d="M257.903 218.874L207.775 218.211C201.432 218.128 196.285 212.868 196.279 206.464L196.042 86.9206C196.036 80.5163 201.173 75.393 207.516 75.4768L257.644 76.1392C263.987 76.223 269.134 81.4822 269.14 87.8865L269.377 207.43C269.383 213.834 264.246 218.958 257.903 218.874Z" fill="#20BDFF"/>
<path d="M257.903 218.874L207.775 218.211C201.432 218.128 196.285 212.868 196.279 206.464L196.042 86.9206C196.036 80.5163 201.173 75.393 207.516 75.4768L257.644 76.1392C263.987 76.223 269.134 81.4822 269.14 87.8865L269.377 207.43C269.383 213.834 264.246 218.958 257.903 218.874Z" stroke="#26282D" stroke-width="4.875" stroke-linecap="round" stroke-linejoin="round"/>
<path d="M222.371 83.8791L241.387 84.1304C241.973 84.1384 242.503 84.6143 242.567 85.2398L242.575 85.3669C242.575 86.0285 242.055 86.5133 241.457 86.5055L222.441 86.2542C221.855 86.2463 221.326 85.77 221.261 85.1448L221.254 85.0177C221.254 84.3554 221.775 83.8712 222.371 83.8791Z" fill="#26282D" stroke="#26282D" stroke-width="4.875"/>
<path d="M215.858 143.006C234.208 135.316 244.344 131.143 247.797 130.347C250.765 129.663 250.503 131.862 250.481 132.253C250.224 136.796 245.949 156.153 245.669 157.391C245.093 159.943 244.126 160.789 243.218 160.861C241.246 161.017 239.814 159.505 237.961 158.221C235.061 156.212 233.428 154.963 230.614 153.003C227.362 150.738 229.576 149.546 231.559 147.576C231.974 147.164 237.789 142.079 240.207 139.686C240.978 138.925 241.598 138.369 241.123 137.921C240.687 137.511 239.954 138.055 238.731 138.817C236.535 140.184 232.214 142.963 225.766 147.156C224.379 148.074 223.137 148.514 222.043 148.476C220.836 148.433 218.538 147.74 216.833 147.15C214.742 146.427 213.073 146.038 213.266 144.859C213.367 144.246 214.231 143.628 215.858 143.006Z" fill="white"/>
<path d="M170.725 226.964C194.09 198.787 201.335 153.386 186.481 152.234C178.594 151.622 159.249 178.119 136.441 187.205" fill="#FFD527"/>
<path d="M170.725 226.964C194.09 198.787 201.335 153.386 186.481 152.234C178.594 151.622 159.249 178.119 136.441 187.205" stroke="#F99015" stroke-width="4.875" stroke-linecap="round" stroke-linejoin="round"/>
<path d="M170.606 176.114C164.668 181.794 155.165 189.714 144.142 194.759" stroke="white" stroke-width="4.875" stroke-linecap="round" stroke-linejoin="round"/>
</g>
<defs>
<linearGradient id="paint0_linear_2324_4853" x1="0" y1="0" x2="271.819" y2="13.007" gradientUnits="userSpaceOnUse">
<stop stop-color="#CCC660"/>
<stop offset="1" stop-color="#77AA90"/>
</linearGradient>
<linearGradient id="paint1_linear_2324_4853" x1="169.752" y1="32.5" x2="169.752" y2="308.75" gradientUnits="userSpaceOnUse">
<stop stop-color="white"/>
<stop offset="1" stop-color="#EAEAED"/>
</linearGradient>
<linearGradient id="paint2_linear_2324_4853" x1="169.752" y1="32.5" x2="169.752" y2="308.75" gradientUnits="userSpaceOnUse">
<stop stop-color="white"/>
<stop offset="1" stop-color="#EAEAED"/>
</linearGradient>
</defs>
</svg>
