<svg width="186" height="60" viewBox="0 0 186 60" fill="none" xmlns="http://www.w3.org/2000/svg">
<path d="M2.49805 26.0047C2.50965 26.1866 2.52264 26.3628 2.53718 26.5336C2.66931 28.0871 2.91592 28.9833 3.27972 29.664C3.97395 30.9628 5.03773 32.0265 6.33654 32.7208C7.01716 33.0846 7.9134 33.3312 9.46686 33.4633C11.0501 33.598 13.0858 33.6 16.0005 33.6C18.9152 33.6 20.9508 33.598 22.5341 33.4633C24.0876 33.3312 24.9838 33.0846 25.6644 32.7208C26.9632 32.0265 28.027 30.9628 28.7213 29.664C29.0851 28.9833 29.3317 28.0871 29.4638 26.5336C29.556 25.4493 29.586 24.1528 29.5958 22.507C29.2034 22.4105 28.8671 22.2521 28.5916 22.0967C28.3517 21.9613 28.1289 21.8111 27.9481 21.6875C27.9095 21.661 27.8724 21.6356 27.8369 21.6112C27.6935 21.5128 27.5728 21.4299 27.4437 21.348C26.7976 20.9418 26.2436 20.5775 25.6962 20.2175C25.2602 19.9307 24.8283 19.6467 24.3574 19.3464C23.9712 19.1018 23.5392 18.7697 23.2453 18.3026L18.9936 21.63C18.8705 21.7264 18.7222 21.7843 18.5673 21.7972C18.5452 21.7991 18.5229 21.8 18.5006 21.8H13.7727L7.48834 26.6341C7.3466 26.7431 7.17359 26.8007 6.99735 26.8C6.95132 26.7998 6.90507 26.7957 6.8591 26.7874L2.49805 26.0047Z" fill="#99CCFF"/>
<path d="M21.2208 17.8551C20.8968 17.8155 20.5631 17.7437 20.2822 17.6761C19.8512 17.5725 19.4021 17.4427 19.025 17.3252C18.9673 17.3074 18.9006 17.2876 18.8276 17.2659C18.5047 17.1698 18.0591 17.0372 17.7286 16.8827C17.5085 16.7798 17.1568 16.59 16.8675 16.2462C16.5246 15.8387 16.3444 15.3024 16.4157 14.7239L16.4175 14.7099L16.4194 14.6959C16.5296 13.916 17.0696 13.4573 17.3502 13.2546C17.6727 13.0217 18.054 12.8411 18.4223 12.6943C22.4349 11.0116 25.1227 9.8866 26.479 9.33814L26.4807 9.33745C26.917 9.1616 27.3158 9.00158 27.6809 8.85606C27.1078 8.22132 26.4265 7.68666 25.6643 7.27926C24.9837 6.91546 24.0875 6.66885 22.534 6.53672C20.9507 6.40205 18.9151 6.40002 16.0004 6.40002C13.0857 6.40002 11.05 6.40205 9.46677 6.53672C7.91331 6.66885 7.01707 6.91546 6.33645 7.27926C5.03764 7.97349 3.97385 9.03727 3.27962 10.3361C2.91582 11.0167 2.66922 11.9129 2.53708 13.4664C2.40241 15.0497 2.40039 17.0853 2.40039 20C2.40039 21.7381 2.40111 23.1636 2.43025 24.3669L6.7932 25.1501L13.0126 20.3659C13.1524 20.2583 13.3239 20.2 13.5003 20.2H18.2245L21.2208 17.8551Z" fill="#EAF2FA"/>
<path fill-rule="evenodd" clip-rule="evenodd" d="M19.027 14.1755C23.0527 12.4873 25.7327 11.3656 27.0784 10.8214C30.9086 9.27766 31.7137 9.01111 32.2313 9C32.3464 9 32.5994 9.02221 32.7719 9.15549C32.91 9.26655 32.9445 9.41093 32.9675 9.52199C32.9905 9.63306 33.0135 9.86629 32.9905 10.044C32.7834 12.1542 31.8863 17.2741 31.4262 19.6287C31.2307 20.6282 30.8511 20.9614 30.483 20.9947C29.6779 21.0614 29.0683 20.4838 28.2977 19.9952C27.0784 19.2288 26.3998 18.7513 25.2151 17.996C23.8464 17.1298 24.732 16.6522 25.5142 15.8748C25.7212 15.6748 29.2523 12.5651 29.3213 12.2874C29.3328 12.2541 29.3328 12.1208 29.2523 12.0542C29.1718 11.9876 29.0568 12.0098 28.9648 12.032C28.8382 12.0542 26.9059 13.2981 23.1448 15.7526C22.5927 16.1191 22.0981 16.2968 21.6495 16.2857C21.1549 16.2746 20.2117 16.0191 19.4986 15.797C18.636 15.5305 17.9458 15.3861 18.0034 14.9196C18.0379 14.6753 18.3829 14.4309 19.027 14.1755Z" fill="white"/>
<path fill-rule="evenodd" clip-rule="evenodd" d="M31.9979 21.9754C31.9828 26.4362 31.8584 28.885 30.8374 30.7953C29.9194 32.5127 28.5127 33.9194 26.7953 34.8374C24.6202 36 21.7468 36 16 36C10.2532 36 7.37982 36 5.20471 34.8374C3.48727 33.9194 2.08061 32.5127 1.16262 30.7953C0 28.6202 0 25.7468 0 20C0 14.2532 0 11.3798 1.16262 9.20471C2.08061 7.48727 3.48727 6.08061 5.20471 5.16262C7.37982 4 10.2532 4 16 4C21.7468 4 24.6202 4 26.7953 5.16262C28.0713 5.84465 29.1757 6.79642 30.0357 7.94497C30.154 7.90182 30.2645 7.86225 30.3679 7.826C31.1278 7.55972 31.665 7.41178 32.197 7.40037L32.2141 7.4H32.2313C32.4171 7.4 33.1348 7.41404 33.75 7.88928L33.7626 7.89898L33.7749 7.90894C34.3683 8.38637 34.4969 9.01518 34.5315 9.18456L34.5342 9.19748C34.5812 9.4247 34.6267 9.82809 34.5809 10.2191C34.3622 12.4248 33.4548 17.59 32.9965 19.9355C32.8538 20.6648 32.553 21.4483 31.9979 21.9754ZM16 33.6C13.0853 33.6 11.0497 33.598 9.46638 33.4633C7.91292 33.3312 7.01668 33.0846 6.33606 32.7208C5.03725 32.0265 3.97346 30.9628 3.27923 29.6639C2.91543 28.9833 2.66883 28.0871 2.53669 26.5336C2.52216 26.3627 2.50917 26.1866 2.49756 26.0046L6.85876 26.7874C7.08069 26.8273 7.30913 26.7716 7.48786 26.6341L13.7722 21.8H18.5001C18.6788 21.8 18.8524 21.7402 18.9931 21.63L23.2448 18.3026C23.5387 18.7697 23.9707 19.1018 24.3569 19.3464C24.8278 19.6467 25.2597 19.9307 25.6957 20.2175C26.2431 20.5775 26.7971 20.9418 27.4432 21.3479C27.5723 21.4299 27.693 21.5127 27.8364 21.6112C27.8719 21.6356 27.909 21.661 27.9477 21.6875C28.1284 21.8111 28.3512 21.9613 28.5911 22.0967C28.8666 22.2521 29.2029 22.4105 29.5953 22.507C29.5856 24.1528 29.5555 25.4493 29.4633 26.5336C29.3312 28.0871 29.0846 28.9833 28.7208 29.6639C28.0265 30.9628 26.9628 32.0265 25.6639 32.7208C24.9833 33.0846 24.0871 33.3312 22.5336 33.4633C20.9503 33.598 18.9147 33.6 16 33.6ZM29.8725 20.9241C29.7803 20.8955 29.6896 20.8596 29.5998 20.818C29.3161 20.6864 29.0412 20.4977 28.7521 20.299C28.6053 20.1982 28.4548 20.0948 28.2976 19.9952C27.6305 19.5758 27.1252 19.243 26.6103 18.9038C26.1843 18.6231 25.7514 18.338 25.2151 17.996C24.3279 17.4345 24.3878 17.0363 24.7529 16.6139C24.8733 16.4745 25.027 16.3325 25.1908 16.1812C25.2964 16.0835 25.4063 15.982 25.5141 15.8748C25.5565 15.8338 25.7384 15.6707 26.0015 15.4349C26.5821 14.9145 27.558 14.0397 28.302 13.3412C28.6112 13.0509 28.8803 12.7911 29.0644 12.5998L29.0943 12.5686C29.2288 12.4272 29.3113 12.3276 29.3213 12.2874C29.3328 12.2541 29.3328 12.1208 29.2523 12.0542C29.1718 11.9876 29.0567 12.0098 28.9647 12.032C28.9473 12.0351 28.8956 12.0613 28.8095 12.1108C28.7912 12.1213 28.7713 12.1328 28.7499 12.1454C28.561 12.2566 28.2512 12.4494 27.8201 12.7234C27.0802 13.1937 25.983 13.9035 24.5264 14.8518L24.5088 14.8633C24.2542 15.0291 23.9886 15.2022 23.7121 15.3825L23.1447 15.7526C22.5926 16.1191 22.098 16.2968 21.6494 16.2857C21.1549 16.2746 20.2117 16.0191 19.4986 15.797C19.4604 15.7852 19.4225 15.7736 19.385 15.7623L19.3286 15.7452L19.2104 15.7097C18.4879 15.4933 17.9524 15.3328 18.0033 14.9196C18.0378 14.6753 18.3829 14.4309 19.027 14.1755L19.2969 14.0623C23.1727 12.4371 25.763 11.3534 27.0784 10.8214C27.6686 10.5836 28.1869 10.376 28.6434 10.1951C29.6732 9.78688 30.3886 9.51396 30.9044 9.33341C31.644 9.07452 31.9734 9.00554 32.2313 9C32.3463 9 32.5994 9.02221 32.7719 9.15549C32.9099 9.26655 32.9444 9.41093 32.9674 9.52199C32.9904 9.63306 33.0134 9.86629 32.9904 10.044C32.7834 12.1542 31.8862 17.2741 31.4262 19.6287C31.2551 20.5032 30.9431 20.8677 30.6212 20.9675C30.5752 20.9817 30.529 20.9906 30.483 20.9947C30.4632 20.9964 30.4434 20.9976 30.4238 20.9985C30.2308 21.0071 30.0487 20.9788 29.8725 20.9241ZM27.6805 8.85604C27.1074 8.2213 26.4261 7.68663 25.6639 7.27923C24.9833 6.91543 24.0871 6.66883 22.5336 6.53669C20.9503 6.40202 18.9147 6.4 16 6.4C13.0853 6.4 11.0497 6.40202 9.46638 6.53669C7.91292 6.66883 7.01668 6.91543 6.33606 7.27923C5.03725 7.97346 3.97346 9.03725 3.27923 10.3361C2.91543 11.0167 2.66883 11.9129 2.53669 13.4664C2.40202 15.0497 2.4 17.0853 2.4 20C2.4 21.7381 2.40072 23.1635 2.42986 24.3669L6.79294 25.15L13.0123 20.3659C13.1522 20.2583 13.3237 20.2 13.5001 20.2H18.2243L21.2205 17.8551C20.8965 17.8154 20.5628 17.7437 20.2818 17.6761C19.8508 17.5725 19.4017 17.4426 19.0246 17.3252C18.9669 17.3074 18.9001 17.2875 18.8271 17.2658C18.5042 17.1697 18.0587 17.0372 17.7282 16.8827C17.5081 16.7798 17.1564 16.59 16.8671 16.2462C16.5242 15.8387 16.344 15.3024 16.4153 14.7238L16.4171 14.7098L16.419 14.6959C16.5292 13.916 17.0692 13.4573 17.3498 13.2546C17.6723 13.0217 18.0536 12.8411 18.4219 12.6942C22.4345 11.0116 25.1223 9.88658 26.4786 9.33812L26.4803 9.33743C26.9166 9.16157 27.3154 9.00156 27.6805 8.85604Z" fill="#0777E7"/>
<path d="M179.109 19.666L181.813 15.5037H185.818L181.137 22.0853C182.177 23.3861 183.122 24.6521 183.971 25.8835C184.821 27.1148 185.497 28.2161 186 29.1873H181.839C181.7 28.9272 181.527 28.6063 181.319 28.2248C181.111 27.8259 180.877 27.4183 180.617 27.0021C180.357 26.5685 180.079 26.1436 179.785 25.7274C179.507 25.2938 179.23 24.9036 178.953 24.5567C178.693 24.8862 178.424 25.2505 178.146 25.6493C177.886 26.0482 177.635 26.4558 177.392 26.872C177.15 27.2709 176.907 27.6698 176.664 28.0687C176.439 28.4676 176.239 28.8405 176.066 29.1873H172.113C172.321 28.7537 172.607 28.2421 172.971 27.6525C173.336 27.0628 173.726 26.4558 174.142 25.8314C174.575 25.1898 175.026 24.5567 175.494 23.9324C175.962 23.2907 176.421 22.6924 176.872 22.1374C176.092 21.0448 175.312 19.9435 174.532 18.8335C173.752 17.7062 172.98 16.5963 172.217 15.5037H176.404L179.109 19.666Z" fill="#4D566A"/>
<path d="M170.962 15.5037C170.181 18.1398 169.367 20.6112 168.517 22.9178C167.668 25.2244 166.74 27.4617 165.735 29.6296C165.37 30.41 165.006 31.069 164.642 31.6067C164.278 32.1617 163.88 32.6126 163.446 32.9594C163.013 33.3236 162.519 33.5838 161.964 33.7399C161.426 33.9133 160.794 34 160.066 34C159.459 34 158.895 33.9393 158.375 33.8179C157.872 33.7139 157.456 33.5925 157.127 33.4537L157.803 30.358C158.202 30.4967 158.557 30.5921 158.869 30.6441C159.181 30.6962 159.511 30.7222 159.857 30.7222C160.551 30.7222 161.08 30.5314 161.444 30.1499C161.825 29.7857 162.146 29.274 162.406 28.615C161.522 26.8807 160.638 24.9383 159.753 22.7877C158.869 20.6199 158.037 18.1918 157.257 15.5037H161.366C161.539 16.18 161.738 16.9171 161.964 17.7149C162.207 18.4953 162.458 19.2931 162.718 20.1082C162.978 20.906 163.238 21.6865 163.498 22.4496C163.776 23.2126 164.036 23.9064 164.278 24.5307C164.504 23.9064 164.738 23.2126 164.98 22.4496C165.223 21.6865 165.457 20.906 165.683 20.1082C165.925 19.2931 166.151 18.4953 166.359 17.7149C166.584 16.9171 166.783 16.18 166.957 15.5037H170.962Z" fill="#4D566A"/>
<path d="M143.91 29.1873V9.62435L147.785 9V15.5557C148.045 15.469 148.374 15.3909 148.773 15.3215C149.189 15.2348 149.588 15.1915 149.969 15.1915C151.079 15.1915 151.998 15.3476 152.726 15.6597C153.471 15.9546 154.061 16.3795 154.494 16.9344C154.945 17.4894 155.257 18.1485 155.43 18.9115C155.621 19.6746 155.716 20.5245 155.716 21.461V29.1873H151.842V21.9292C151.842 20.6805 151.677 19.796 151.348 19.2758C151.035 18.7555 150.446 18.4953 149.579 18.4953C149.232 18.4953 148.903 18.53 148.591 18.5994C148.296 18.6514 148.028 18.7121 147.785 18.7815V29.1873H143.91Z" fill="#4D566A"/>
<path d="M136.98 22.4495C136.98 21.2529 136.712 20.299 136.174 19.5879C135.637 18.8595 134.839 18.4953 133.782 18.4953C133.435 18.4953 133.114 18.5127 132.82 18.5473C132.525 18.5647 132.282 18.5907 132.092 18.6254V25.6233C132.334 25.7794 132.646 25.9095 133.028 26.0135C133.426 26.1176 133.825 26.1696 134.224 26.1696C136.062 26.1696 136.98 24.9296 136.98 22.4495ZM140.933 22.3455C140.933 23.4034 140.803 24.3659 140.543 25.2331C140.283 26.1002 139.902 26.846 139.399 27.4703C138.896 28.0947 138.272 28.5803 137.527 28.9272C136.781 29.274 135.923 29.4474 134.952 29.4474C134.415 29.4474 133.912 29.3954 133.444 29.2914C132.976 29.1873 132.525 29.0399 132.092 28.8491V34H128.217V15.9719C128.564 15.8678 128.962 15.7725 129.413 15.6857C129.864 15.5817 130.332 15.495 130.817 15.4256C131.32 15.3562 131.823 15.3042 132.326 15.2695C132.846 15.2175 133.34 15.1915 133.808 15.1915C134.935 15.1915 135.94 15.3649 136.824 15.7118C137.709 16.0413 138.454 16.5182 139.061 17.1426C139.668 17.7496 140.127 18.4953 140.439 19.3798C140.768 20.2643 140.933 21.2529 140.933 22.3455Z" fill="#4D566A"/>
<path d="M119.069 26.4818C119.45 26.4818 119.814 26.4731 120.161 26.4558C120.508 26.4385 120.785 26.4124 120.993 26.3778V23.4381C120.837 23.4034 120.603 23.3687 120.291 23.3341C119.979 23.2994 119.693 23.282 119.433 23.282C119.069 23.282 118.722 23.308 118.393 23.3601C118.081 23.3948 117.803 23.4728 117.56 23.5942C117.318 23.7156 117.127 23.8804 116.988 24.0885C116.85 24.2966 116.78 24.5567 116.78 24.8689C116.78 25.4759 116.98 25.9008 117.378 26.1436C117.795 26.3691 118.358 26.4818 119.069 26.4818ZM118.757 15.1395C119.901 15.1395 120.854 15.2695 121.617 15.5297C122.38 15.7898 122.987 16.1627 123.438 16.6483C123.906 17.1339 124.235 17.7236 124.426 18.4173C124.616 19.111 124.712 19.8828 124.712 20.7326V28.7971C124.157 28.9185 123.386 29.0573 122.397 29.2133C121.409 29.3868 120.213 29.4735 118.809 29.4735C117.925 29.4735 117.118 29.3954 116.39 29.2394C115.679 29.0833 115.064 28.8318 114.544 28.4849C114.024 28.1207 113.625 27.6525 113.348 27.0802C113.07 26.5078 112.932 25.8054 112.932 24.973C112.932 24.1752 113.088 23.4988 113.4 22.9438C113.729 22.3889 114.163 21.9466 114.7 21.6171C115.237 21.2876 115.853 21.0534 116.546 20.9147C117.24 20.7586 117.959 20.6806 118.705 20.6806C119.207 20.6806 119.65 20.7066 120.031 20.7586C120.43 20.7933 120.75 20.8453 120.993 20.9147V20.5505C120.993 19.8915 120.794 19.3625 120.395 18.9636C119.996 18.5647 119.303 18.3653 118.315 18.3653C117.656 18.3653 117.006 18.4173 116.364 18.5214C115.723 18.6081 115.168 18.7381 114.7 18.9116L114.206 15.7898C114.431 15.7205 114.709 15.6511 115.038 15.5817C115.385 15.495 115.757 15.4256 116.156 15.3736C116.555 15.3042 116.971 15.2522 117.404 15.2175C117.855 15.1655 118.306 15.1395 118.757 15.1395Z" fill="#4D566A"/>
<path d="M111.369 18.9376C111.022 18.8508 110.614 18.7641 110.146 18.6774C109.678 18.5733 109.175 18.5213 108.638 18.5213C108.395 18.5213 108.101 18.5473 107.754 18.5994C107.424 18.634 107.173 18.6774 107 18.7294V29.1873H103.125V16.232C103.818 15.9892 104.633 15.7638 105.569 15.5557C106.523 15.3302 107.58 15.2175 108.742 15.2175C108.95 15.2175 109.201 15.2348 109.496 15.2695C109.791 15.2868 110.086 15.3215 110.38 15.3736C110.675 15.4082 110.97 15.4603 111.265 15.5296C111.559 15.5817 111.811 15.651 112.019 15.7378L111.369 18.9376Z" fill="#4D566A"/>
<path d="M93.9155 14.281C92.0258 14.281 90.6562 14.8099 89.8067 15.8679C88.9746 16.9084 88.5585 18.3392 88.5585 20.1603C88.5585 21.0447 88.6625 21.8512 88.8705 22.5796C89.0786 23.2907 89.3906 23.9064 89.8067 24.4266C90.2228 24.9469 90.7429 25.3545 91.367 25.6493C91.9911 25.9268 92.7193 26.0656 93.5514 26.0656C94.0022 26.0656 94.3836 26.0569 94.6956 26.0395C95.025 26.0222 95.3111 25.9875 95.5538 25.9355V19.666H99.6105V28.589C99.1251 28.7797 98.345 28.9792 97.2701 29.1873C96.1952 29.4128 94.869 29.5255 93.2914 29.5255C91.9391 29.5255 90.7082 29.3174 89.5987 28.9011C88.5065 28.4849 87.5703 27.8779 86.7902 27.0801C86.01 26.2823 85.4032 25.3025 84.9698 24.1405C84.5537 22.9785 84.3457 21.6518 84.3457 20.1603C84.3457 18.6514 84.5797 17.316 85.0478 16.154C85.5159 14.992 86.1574 14.0121 86.9722 13.2144C87.787 12.3992 88.7405 11.7836 89.8327 11.3673C90.9423 10.9511 92.1211 10.743 93.3694 10.743C94.2189 10.743 94.9817 10.8037 95.6578 10.9251C96.3513 11.0291 96.9407 11.1592 97.4261 11.3153C97.9289 11.4541 98.3363 11.6015 98.6484 11.7576C98.9778 11.9136 99.2118 12.035 99.3505 12.1218L98.1803 15.3736C97.6255 15.0787 96.984 14.8273 96.2559 14.6192C95.5451 14.3937 94.765 14.281 93.9155 14.281Z" fill="#4D566A"/>
<path d="M70.2285 22.4495C70.2285 21.2702 70.3932 20.247 70.7226 19.3798C71.0693 18.4953 71.5114 17.7582 72.0489 17.1686C72.6036 16.5789 73.2277 16.1453 73.9212 15.8678C74.632 15.573 75.3601 15.4256 76.1056 15.4256C77.7526 15.4256 79.0615 15.9632 80.0323 17.0385C81.0205 18.1138 81.5146 19.77 81.5146 22.0073C81.5146 22.146 81.5059 22.2848 81.4886 22.4235C81.4886 22.5623 81.4799 22.6923 81.4626 22.8137H72.0228C72.0749 24.4613 72.4823 25.7274 73.2451 26.6119C74.0079 27.4964 75.2214 27.9386 76.8858 27.9386C77.8046 27.9386 78.5327 27.8519 79.0702 27.6785C79.6076 27.505 79.9977 27.3576 80.2404 27.2362L80.5524 28.693C80.3097 28.8318 79.8503 28.9965 79.1742 29.1873C78.5154 29.3781 77.7352 29.4735 76.8337 29.4735C75.6549 29.4735 74.6493 29.3 73.8172 28.9532C72.985 28.6063 72.3002 28.1207 71.7628 27.4964C71.2254 26.872 70.8353 26.1349 70.5926 25.2851C70.3499 24.418 70.2285 23.4728 70.2285 22.4495ZM79.7723 21.3829C79.7376 19.9781 79.4082 18.8855 78.7841 18.1051C78.16 17.3247 77.2758 16.9344 76.1316 16.9344C75.5248 16.9344 74.9787 17.0558 74.4933 17.2986C74.0252 17.5415 73.6091 17.871 73.2451 18.2872C72.8983 18.6861 72.621 19.1544 72.4129 19.692C72.2222 20.2296 72.1095 20.7933 72.0749 21.3829H79.7723Z" fill="#4D566A"/>
<path d="M67.8129 29.4214C67.2409 29.4041 66.7383 29.326 66.3049 29.1873C65.8889 29.0659 65.5336 28.8751 65.2389 28.615C64.9616 28.3375 64.7449 27.9906 64.5889 27.5744C64.4503 27.1408 64.3809 26.6032 64.3809 25.9615V9.31217L66.0709 9V25.9095C66.0709 26.3257 66.1056 26.6639 66.1749 26.924C66.2616 27.1668 66.3829 27.3663 66.5389 27.5224C66.6949 27.6611 66.8943 27.7652 67.1369 27.8345C67.3969 27.9039 67.7003 27.9646 68.0469 28.0166L67.8129 29.4214Z" fill="#4D566A"/>
<path d="M49.3555 22.4495C49.3555 21.2702 49.5202 20.247 49.8496 19.3798C50.1963 18.4953 50.6384 17.7582 51.1758 17.1686C51.7306 16.5789 52.3547 16.1453 53.0482 15.8678C53.759 15.573 54.4871 15.4256 55.2326 15.4256C56.8796 15.4256 58.1885 15.9632 59.1593 17.0385C60.1475 18.1138 60.6416 19.77 60.6416 22.0073C60.6416 22.146 60.6329 22.2848 60.6156 22.4235C60.6156 22.5623 60.6069 22.6923 60.5896 22.8137H51.1498C51.2018 24.4613 51.6092 25.7274 52.3721 26.6119C53.1349 27.4964 54.3484 27.9386 56.0127 27.9386C56.9316 27.9386 57.6597 27.8519 58.1971 27.6785C58.7346 27.505 59.1246 27.3576 59.3673 27.2362L59.6794 28.693C59.4367 28.8318 58.9773 28.9965 58.3011 29.1873C57.6424 29.3781 56.8622 29.4735 55.9607 29.4735C54.7818 29.4735 53.7763 29.3 52.9442 28.9532C52.112 28.6063 51.4272 28.1207 50.8898 27.4964C50.3523 26.872 49.9623 26.1349 49.7196 25.2851C49.4768 24.418 49.3555 23.4728 49.3555 22.4495ZM58.8993 21.3829C58.8646 19.9781 58.5352 18.8855 57.9111 18.1051C57.287 17.3247 56.4028 16.9344 55.2586 16.9344C54.6518 16.9344 54.1057 17.0558 53.6203 17.2986C53.1522 17.5415 52.7361 17.871 52.3721 18.2872C52.0253 18.6861 51.7479 19.1544 51.5399 19.692C51.3492 20.2296 51.2365 20.7933 51.2018 21.3829H58.8993Z" fill="#4D566A"/>
<path d="M41.6903 15.7378H47.0473V17.1686H41.6903V24.3226C41.6903 25.0857 41.751 25.71 41.8723 26.1956C42.011 26.6639 42.2017 27.0281 42.4445 27.2882C42.6872 27.5484 42.9819 27.7218 43.3286 27.8085C43.6753 27.8952 44.0568 27.9386 44.4728 27.9386C45.1836 27.9386 45.7557 27.8606 46.1891 27.7045C46.6226 27.531 46.9606 27.3749 47.2033 27.2362L47.6194 28.641C47.3767 28.7971 46.952 28.9792 46.3452 29.1873C45.7384 29.3781 45.0796 29.4735 44.3688 29.4735C43.5367 29.4735 42.8345 29.3694 42.2624 29.1613C41.7077 28.9358 41.2569 28.6063 40.9102 28.1727C40.5808 27.7218 40.3467 27.1668 40.208 26.5078C40.0693 25.8488 40 25.0683 40 24.1665V11.7836L41.6903 11.4714V15.7378Z" fill="#4D566A"/>
<rect x="98" y="40" width="88" height="18" rx="6" fill="#0777E7"/>
<path d="M104.7 53V45.8H109.64V47.07H106.06V48.44H107.74C107.807 48.44 107.9 48.4433 108.02 48.45C108.14 48.4533 108.247 48.46 108.34 48.47C108.753 48.5133 109.097 48.6417 109.37 48.855C109.647 49.065 109.853 49.3333 109.99 49.66C110.13 49.9833 110.2 50.3367 110.2 50.72C110.2 51.1033 110.132 51.4583 109.995 51.785C109.858 52.1083 109.652 52.3767 109.375 52.59C109.102 52.8 108.757 52.9267 108.34 52.97C108.247 52.98 108.14 52.9883 108.02 52.995C107.903 52.9983 107.81 53 107.74 53H104.7ZM106.06 51.73H107.68C107.75 51.73 107.827 51.7267 107.91 51.72C107.993 51.7133 108.07 51.7033 108.14 51.69C108.417 51.63 108.6 51.5017 108.69 51.305C108.783 51.1083 108.83 50.9133 108.83 50.72C108.83 50.5233 108.783 50.3283 108.69 50.135C108.6 49.9383 108.417 49.81 108.14 49.75C108.07 49.7333 107.993 49.7233 107.91 49.72C107.827 49.7133 107.75 49.71 107.68 49.71H106.06V51.73ZM110.608 53L112.808 45.8H114.838L117.038 53H115.638L113.678 46.65H113.938L112.008 53H110.608ZM111.928 51.5V50.23H115.728V51.5H111.928ZM120.869 53.15C120.359 53.15 119.911 53.075 119.524 52.925C119.141 52.775 118.817 52.5833 118.554 52.35C118.291 52.1133 118.086 51.8667 117.939 51.61L119.089 50.81C119.169 50.9767 119.282 51.1417 119.429 51.305C119.576 51.4683 119.771 51.6033 120.014 51.71C120.257 51.8167 120.562 51.87 120.929 51.87C121.276 51.87 121.554 51.82 121.764 51.72C121.977 51.62 122.131 51.4917 122.224 51.335C122.321 51.1783 122.369 51.0133 122.369 50.84C122.369 50.61 122.301 50.4333 122.164 50.31C122.031 50.1867 121.857 50.1017 121.644 50.055C121.431 50.005 121.206 49.9767 120.969 49.97C120.739 49.9633 120.572 49.9583 120.469 49.955C120.369 49.9517 120.301 49.95 120.264 49.95C120.231 49.95 120.199 49.95 120.169 49.95V48.67C120.212 48.67 120.276 48.67 120.359 48.67C120.446 48.67 120.532 48.67 120.619 48.67C120.709 48.6667 120.782 48.6633 120.839 48.66C121.189 48.6433 121.481 48.5667 121.714 48.43C121.951 48.2933 122.069 48.08 122.069 47.79C122.069 47.5233 121.964 47.3117 121.754 47.155C121.547 46.9983 121.269 46.92 120.919 46.92C120.589 46.92 120.294 46.9917 120.034 47.135C119.777 47.275 119.589 47.43 119.469 47.6L118.539 46.6C118.789 46.34 119.124 46.1167 119.544 45.93C119.964 45.7433 120.436 45.65 120.959 45.65C121.276 45.65 121.586 45.6917 121.889 45.775C122.192 45.855 122.466 45.98 122.709 46.15C122.952 46.3167 123.146 46.5317 123.289 46.795C123.436 47.0583 123.509 47.3733 123.509 47.74C123.509 48.05 123.454 48.3433 123.344 48.62C123.234 48.8933 123.076 49.1233 122.869 49.31C123.169 49.4433 123.401 49.6367 123.564 49.89C123.727 50.1433 123.809 50.46 123.809 50.84C123.809 51.3167 123.676 51.7283 123.409 52.075C123.146 52.4183 122.791 52.6833 122.344 52.87C121.901 53.0567 121.409 53.15 120.869 53.15ZM124.909 53L127.109 45.8H129.139L131.339 53H129.939L127.979 46.65H128.239L126.309 53H124.909ZM126.229 51.5V50.23H130.029V51.5H126.229ZM137.867 53.15C137.357 53.15 136.909 53.075 136.522 52.925C136.139 52.775 135.815 52.5833 135.552 52.35C135.289 52.1133 135.084 51.8667 134.937 51.61L136.087 50.81C136.167 50.9767 136.28 51.1417 136.427 51.305C136.574 51.4683 136.769 51.6033 137.012 51.71C137.255 51.8167 137.56 51.87 137.927 51.87C138.274 51.87 138.552 51.82 138.762 51.72C138.975 51.62 139.129 51.4917 139.222 51.335C139.319 51.1783 139.367 51.0133 139.367 50.84C139.367 50.61 139.299 50.4333 139.162 50.31C139.029 50.1867 138.855 50.1017 138.642 50.055C138.429 50.005 138.204 49.9767 137.967 49.97C137.737 49.9633 137.57 49.9583 137.467 49.955C137.367 49.9517 137.299 49.95 137.262 49.95C137.229 49.95 137.197 49.95 137.167 49.95V48.67C137.21 48.67 137.274 48.67 137.357 48.67C137.444 48.67 137.53 48.67 137.617 48.67C137.707 48.6667 137.78 48.6633 137.837 48.66C138.187 48.6433 138.479 48.5667 138.712 48.43C138.949 48.2933 139.067 48.08 139.067 47.79C139.067 47.5233 138.962 47.3117 138.752 47.155C138.545 46.9983 138.267 46.92 137.917 46.92C137.587 46.92 137.292 46.9917 137.032 47.135C136.775 47.275 136.587 47.43 136.467 47.6L135.537 46.6C135.787 46.34 136.122 46.1167 136.542 45.93C136.962 45.7433 137.434 45.65 137.957 45.65C138.274 45.65 138.584 45.6917 138.887 45.775C139.19 45.855 139.464 45.98 139.707 46.15C139.95 46.3167 140.144 46.5317 140.287 46.795C140.434 47.0583 140.507 47.3733 140.507 47.74C140.507 48.05 140.452 48.3433 140.342 48.62C140.232 48.8933 140.074 49.1233 139.867 49.31C140.167 49.4433 140.399 49.6367 140.562 49.89C140.725 50.1433 140.807 50.46 140.807 50.84C140.807 51.3167 140.674 51.7283 140.407 52.075C140.144 52.4183 139.789 52.6833 139.342 52.87C138.899 53.0567 138.407 53.15 137.867 53.15ZM142.407 53V45.8H143.767V48.76H146.987V45.8H148.347V53H146.987V50.03H143.767V53H142.407ZM149.751 53L151.951 45.8H153.981L156.181 53H154.781L152.821 46.65H153.081L151.151 53H149.751ZM151.071 51.5V50.23H154.871V51.5H151.071ZM157.577 53V45.8H158.937V48.76H162.157V45.8H163.517V53H162.157V50.03H158.937V53H157.577ZM171.311 53H169.931V48.2L166.801 53H165.421V45.8H166.801V50.6L169.931 45.8H171.311V53ZM173.206 53V45.8H174.586V50.6L177.716 45.8H179.096V53H177.716V48.2L174.586 53H173.206ZM176.126 45.2C175.833 45.2 175.566 45.1283 175.326 44.985C175.086 44.8417 174.894 44.65 174.751 44.41C174.608 44.17 174.536 43.9033 174.536 43.61H175.586C175.586 43.76 175.638 43.8883 175.741 43.995C175.848 44.0983 175.976 44.15 176.126 44.15C176.276 44.15 176.403 44.0983 176.506 43.995C176.613 43.8883 176.666 43.76 176.666 43.61H177.716C177.716 43.9033 177.644 44.17 177.501 44.41C177.358 44.65 177.166 44.8417 176.926 44.985C176.686 45.1283 176.419 45.2 176.126 45.2Z" fill="#EAF2FA"/>
</svg>
