<svg width="260" height="260" viewBox="0 0 260 260" fill="none" xmlns="http://www.w3.org/2000/svg">
<mask id="mask0_2324_4750" style="mask-type:alpha" maskUnits="userSpaceOnUse" x="0" y="0" width="260" height="260">
<rect width="260" height="260" rx="10" fill="#ABB0BA"/>
</mask>
<g mask="url(#mask0_2324_4750)">
<rect width="260" height="260" fill="#EAEAED"/>
<rect width="260" height="260" fill="url(#paint0_linear_2324_4750)"/>
<path d="M53.4225 235.696C52.6443 235.75 51.8725 235.741 51.1141 235.675C44.481 235.096 38.8501 230.084 37.8496 223.247L24.6193 132.879C23.4497 124.892 29.0516 117.506 37.0881 116.356L64.4904 112.433C66.7898 102.39 71.3322 92.7689 78.0673 85.8787C84.6202 79.1749 93.3029 75.0786 103.423 75.9752C111.303 55.4618 127.168 42.0772 145.299 34.1475C164.809 25.615 187.227 23.2325 206.327 24.8483C246.319 28.2309 282.058 54.1258 289.029 94.7888C299.578 97.4527 307.397 104.249 312.496 112.781C318.249 122.407 320.624 134.305 320.041 145.616C319.46 156.902 315.895 168.276 308.971 176.657C302.176 184.881 292.279 189.996 279.847 189.161C276.849 193.577 273.403 197.407 269.654 201.014C275.967 214.264 280.376 231.308 281.797 253.232C282.423 262.884 279.389 271.034 273.624 277.648C267.923 284.188 259.665 289.107 249.953 292.675C230.548 299.804 204.532 301.839 178.67 299.969C152.779 298.098 126.67 292.287 107.008 283.428C97.1832 279.002 88.8066 273.743 82.8843 267.695C77.7819 262.485 74.3847 256.558 73.6408 250.024C66.3944 248.211 60.1943 243.765 55.146 237.835C54.557 237.142 53.9825 236.429 53.4225 235.696Z" fill="url(#paint1_linear_2324_4750)" stroke="url(#paint2_linear_2324_4750)" stroke-width="16.25" stroke-linecap="round"/>
<path d="M278.224 253.431C272.079 158.623 209.577 159.132 185.48 157.48C132.146 153.824 77.395 192.298 76.1345 246.819C74.8828 300.973 282.798 324.001 278.224 253.431Z" fill="#FFD427"/>
<path d="M278.224 253.431C272.079 158.623 209.577 159.132 185.48 157.48C132.146 153.824 77.395 192.298 76.1345 246.819C74.8828 300.972 282.798 324.001 278.224 253.431Z" stroke="#F99015" stroke-width="4.875" stroke-linecap="round" stroke-linejoin="round"/>
<path d="M108.515 186.613C94.569 169.878 88.6442 149.096 93.0084 126.893C102.28 79.7259 154.655 41.6101 208.006 51.8675C261.356 62.1241 295.477 116.869 286.206 164.037C281.83 186.3 268.432 203.279 249.39 213.561" fill="#FFD427"/>
<path d="M108.515 186.613C94.569 169.878 88.6442 149.096 93.0084 126.893C102.28 79.7259 154.655 41.6101 208.006 51.8675C261.356 62.1241 295.477 116.869 286.206 164.037C281.06 190.213 266.383 199.361 248.998 214.405" stroke="#F99015" stroke-width="4.875" stroke-linecap="round" stroke-linejoin="round"/>
<path d="M138.996 83.1268C148.251 75.9674 159.896 68.2596 175.108 67.1011" stroke="white" stroke-width="4.875" stroke-linecap="round" stroke-linejoin="round"/>
<path d="M243.477 87.1978C247.109 90.3647 253.338 96.1985 258.632 104.795" stroke="#FBED20" stroke-width="4.875" stroke-linecap="round" stroke-linejoin="round"/>
<path d="M172.944 100.933C170.847 109.963 163.141 115.918 155.73 114.235C148.32 112.553 144.011 103.868 146.109 94.8378C148.206 85.8075 155.912 79.8522 163.323 81.535C170.733 83.2178 175.041 91.9022 172.944 100.933Z" fill="#26282D"/>
<path d="M172.944 100.933C170.847 109.963 163.141 115.918 155.73 114.235C148.32 112.553 144.011 103.868 146.109 94.8378C148.206 85.8075 155.912 79.8522 163.323 81.535C170.733 83.2178 175.041 91.9022 172.944 100.933Z" stroke="#26282D" stroke-width="4.875" stroke-linecap="round" stroke-linejoin="round"/>
<path d="M162.724 85.9961C164.213 87.8192 163.232 91.0446 160.534 93.2018C157.835 95.3591 154.439 95.6302 152.95 93.8072C151.46 91.9841 152.441 88.7587 155.14 86.6014C157.839 84.4442 161.234 84.173 162.724 85.9961Z" fill="white"/>
<path d="M245.831 107.785C244.512 116.959 237.342 123.536 229.814 122.478C222.286 121.42 217.252 113.126 218.571 103.953C219.89 94.7794 227.061 88.202 234.588 89.2602C242.116 90.3184 247.149 98.6123 245.831 107.785Z" fill="#26282D"/>
<path d="M245.831 107.785C244.512 116.959 237.342 123.536 229.814 122.478C222.286 121.42 217.252 113.126 218.571 103.953C219.89 94.7794 227.061 88.202 234.588 89.2602C242.116 90.3184 247.149 98.6123 245.831 107.785Z" stroke="#26282D" stroke-width="4.875" stroke-linecap="round" stroke-linejoin="round"/>
<path d="M234.375 93.756C236.015 95.4482 235.313 98.7439 232.808 101.119C230.303 103.494 226.943 104.047 225.303 102.355C223.663 100.663 224.365 97.3671 226.87 94.9922C229.375 92.6174 232.735 92.0638 234.375 93.756Z" fill="white"/>
<path d="M162.761 125.558C185.468 122.964 185.421 111.922 194.011 112.969C204.55 114.254 199.879 127.855 219.684 132.912C232.996 136.311 226.443 146.356 217.98 151.228C207.881 157.58 195.846 164.851 185.237 163.05C174.395 161.2 165.03 149.866 159.7 143.207C156.906 140.119 154.221 136.254 154.533 132.481C154.813 129.092 157.168 126.197 162.761 125.558Z" fill="#FF5D1F"/>
<path d="M161.637 134.645C168.389 141.832 175.307 154.152 186.808 155.039C200.878 156.469 218.263 141.783 218.263 141.783C195.661 149.185 167.825 138.491 161.637 134.645Z" fill="#7C0808"/>
<path d="M161.637 134.645C168.389 141.832 175.307 154.152 186.808 155.039C200.878 156.469 218.263 141.783 218.263 141.783C195.661 149.185 167.825 138.491 161.637 134.645Z" stroke="#7C0808" stroke-width="4.875" stroke-linecap="round" stroke-linejoin="round"/>
<path d="M162.761 125.558C185.468 122.964 185.421 111.922 194.011 112.969C204.55 114.254 199.879 127.855 219.684 132.912C232.996 136.311 226.443 146.356 217.98 151.228C207.881 157.58 195.846 164.851 185.237 163.05C174.395 161.2 165.03 149.866 159.7 143.207C156.906 140.119 154.221 136.254 154.533 132.481C154.813 129.092 157.168 126.197 162.761 125.558Z" stroke="#CF3502" stroke-width="4.875" stroke-miterlimit="10"/>
<path d="M175.105 130.693C178.554 129.342 185.971 126.287 190.317 121.989" stroke="#FFAE7A" stroke-width="4.875" stroke-linecap="round" stroke-linejoin="round"/>
<path d="M146.348 37.5552C165.167 29.3235 186.929 26.985 205.534 28.5591L206.472 28.6431C245.556 32.3106 279.683 58.1317 285.225 97.8833C295.894 99.7963 303.726 106.229 308.776 114.68C314.087 123.567 316.353 134.709 315.801 145.425C315.249 156.132 311.871 166.679 305.578 174.296C299.212 182.003 289.921 186.615 278.023 185.304C277.539 185.251 277.083 185.053 276.712 184.738C275.185 183.44 274.076 181.332 273.22 179.041C272.334 176.67 271.596 173.759 270.995 170.517C269.791 164.025 269.087 155.954 268.919 147.673C268.75 139.387 269.117 130.814 270.079 123.311C270.976 116.317 272.422 109.988 274.6 105.709C271.995 88.3645 264.24 75.5902 252.32 66.4253C240.531 57.3609 224.51 51.7084 204.986 48.8784L203.086 48.6128C163.572 43.3142 129.4 55.6277 115.715 85.4409L115.396 86.1479C111.829 94.1783 107.443 108.844 103.634 124.214C99.8319 139.555 96.6628 155.361 95.4814 165.604C95.4037 166.278 95.0488 166.889 94.502 167.291C93.9551 167.692 93.2656 167.846 92.5996 167.718C81.2955 165.543 73.8875 158.062 69.8555 148.533C65.8535 139.074 65.1215 127.528 67.0029 116.708C68.8829 105.897 73.4254 95.5119 80.3066 88.4712C86.7919 81.8356 95.3811 78.1808 105.472 80.0806C112.518 59.1144 128.106 45.5342 146.348 37.5552Z" stroke="#606A79" stroke-width="4.875" stroke-linecap="round" stroke-linejoin="round"/>
<path d="M93.0598 165.325C51.6407 157.356 66.7122 72.2217 107.116 82.9512C119.965 40.2295 168.753 27.8935 205.328 30.988C244.533 34.3045 278.442 60.3048 283.04 100.015C326.146 105.43 322.389 187.739 278.29 182.881C269.99 175.825 268.487 121.494 277.127 106.151C271.986 69.4715 244.651 51.7279 203.41 46.1972C163.038 40.7834 127.257 53.4318 113.168 85.1591C105.848 101.641 95.457 144.54 93.0598 165.325Z" fill="#A6C0C8"/>
<path d="M81.3281 161.956C82.2352 145.801 87.0304 95.0175 102.242 79.9731" stroke="#606A79" stroke-width="4.875" stroke-linecap="round" stroke-linejoin="round"/>
<path d="M286.593 166.28C266.279 182.141 226.309 187.129 201.184 187.129" stroke="#606A79" stroke-width="4.875" stroke-linecap="round" stroke-linejoin="round"/>
<path d="M195.42 197.171C172.322 197.171 173.288 178.162 195.42 178.162C217.882 178.162 218.289 197.171 195.42 197.171Z" fill="#A6C0C8"/>
<path d="M195.42 197.171C172.322 197.171 173.288 178.162 195.42 178.162C217.882 178.162 218.289 197.171 195.42 197.171Z" stroke="#606A79" stroke-width="4.875" stroke-linecap="round" stroke-linejoin="round"/>
<path d="M84.7934 247.52C39.771 254.102 25.8133 155.848 56.3684 147.539C64.5628 145.31 80.9491 204.187 99.1338 206.189" fill="#FFD427"/>
<path d="M84.7934 247.52C39.771 254.103 25.8133 155.849 56.3684 147.539C68.7061 144.183 79.6751 206.189 99.8726 206.189" stroke="#F99015" stroke-width="4.875" stroke-linecap="round" stroke-linejoin="round"/>
<path d="M101.927 225.618L53.6374 232.531C52.7245 232.662 51.8195 232.684 50.9389 232.607C45.6904 232.149 41.2528 228.181 40.4654 222.8L27.237 132.432C26.3168 126.147 30.7226 120.315 37.0773 119.405L85.3673 112.491C87.7191 112.154 90.008 112.539 92.0048 113.475C95.4048 115.069 97.9598 118.264 98.5392 122.223L111.768 212.591C112.688 218.876 108.282 224.708 101.927 225.618Z" fill="#26282D"/>
<path d="M101.927 225.618L53.6374 232.531C52.7245 232.662 51.8195 232.684 50.9389 232.607C45.6904 232.149 41.2528 228.181 40.4654 222.8L27.237 132.432C26.3168 126.147 30.7226 120.315 37.0773 119.405L85.3673 112.491C87.7191 112.154 90.008 112.539 92.0048 113.475C95.4048 115.069 97.9598 118.264 98.5392 122.223L111.768 212.591C112.688 218.876 108.282 224.708 101.927 225.618Z" stroke="#26282D" stroke-width="4.875" stroke-linecap="round" stroke-linejoin="round"/>
<path d="M104.924 224.045L56.6336 230.958C50.2789 231.868 44.3818 227.511 43.4616 221.227L30.2332 130.859C29.313 124.574 33.7195 118.742 40.0742 117.832L88.3642 110.918C94.7188 110.008 100.615 114.365 101.535 120.65L114.764 211.018C115.684 217.303 111.278 223.135 104.924 224.045Z" fill="#20BDFF"/>
<path d="M104.924 224.045L56.6336 230.958C50.2789 231.868 44.3818 227.511 43.4616 221.227L30.2332 130.859C29.313 124.574 33.7195 118.742 40.0742 117.832L88.3642 110.918C94.7188 110.008 100.615 114.365 101.535 120.65L114.764 211.018C115.684 217.303 111.278 223.135 104.924 224.045Z" stroke="#26282D" stroke-width="4.875" stroke-linecap="round" stroke-linejoin="round"/>
<path d="M71.0893 125.838C71.5097 128.313 69.8217 130.656 67.3192 131.072C64.8166 131.487 62.4471 129.818 62.0267 127.343C61.6064 124.868 63.2943 122.525 65.7969 122.109C68.2995 121.693 70.669 123.363 71.0893 125.838Z" fill="#26282D"/>
<path d="M55.4436 170.516C72.5747 160.505 82.0487 155.054 85.3654 153.846C88.2161 152.808 88.2705 155.122 88.3042 155.529C88.6979 160.277 87.2179 180.855 87.1171 182.172C86.9097 184.887 86.0689 185.872 85.1775 186.046C83.2407 186.426 81.6013 185.013 79.5769 183.884C76.4092 182.117 74.608 181 71.5322 179.274C67.9775 177.279 70.0065 175.796 71.6951 173.531C72.0483 173.058 77.0986 167.135 79.1595 164.384C79.8157 163.507 80.3531 162.862 79.8171 162.449C79.3254 162.071 78.6748 162.717 77.5683 163.643C75.5826 165.305 71.6865 168.669 65.8801 173.735C64.6328 174.841 63.4626 175.435 62.3693 175.516C61.1642 175.605 58.7826 175.137 57.0043 174.713C54.8234 174.192 53.1093 173.972 53.1332 172.726C53.1456 172.078 53.9158 171.341 55.4436 170.516Z" fill="white"/>
<path d="M225.471 226.18C198.888 209.756 167.315 188.305 159.085 186.103C150.856 183.901 150.05 217.847 190.783 241.025" fill="#FFD427"/>
<path d="M190.781 241.024C150.048 217.847 150.854 183.9 159.084 186.102C179.262 191.502 212.188 213.046 226.605 227.304" stroke="#F99015" stroke-width="4.875" stroke-linecap="round" stroke-linejoin="round"/>
<path d="M202.175 221.694C192.759 216.151 183.803 210.111 172.938 203.219" stroke="white" stroke-width="4.875" stroke-linecap="round" stroke-linejoin="round"/>
</g>
<defs>
<linearGradient id="paint0_linear_2324_4750" x1="0" y1="0" x2="271.819" y2="13.007" gradientUnits="userSpaceOnUse">
<stop stop-color="#CCC660"/>
<stop offset="1" stop-color="#77AA90"/>
</linearGradient>
<linearGradient id="paint1_linear_2324_4750" x1="172.296" y1="24.375" x2="172.296" y2="300.625" gradientUnits="userSpaceOnUse">
<stop stop-color="white"/>
<stop offset="1" stop-color="#EAEAED"/>
</linearGradient>
<linearGradient id="paint2_linear_2324_4750" x1="172.296" y1="24.375" x2="172.296" y2="300.625" gradientUnits="userSpaceOnUse">
<stop stop-color="white"/>
<stop offset="1" stop-color="#EAEAED"/>
</linearGradient>
</defs>
</svg>
